<?xml version="1.0" encoding="UTF-8" standalone="no"?>
<!-- Created with Inkscape (http://www.inkscape.org/) -->

<svg
   xmlns:dc="http://purl.org/dc/elements/1.1/"
   xmlns:cc="http://creativecommons.org/ns#"
   xmlns:rdf="http://www.w3.org/1999/02/22-rdf-syntax-ns#"
   xmlns:svg="http://www.w3.org/2000/svg"
   xmlns="http://www.w3.org/2000/svg"
   xmlns:xlink="http://www.w3.org/1999/xlink"
   xmlns:sodipodi="http://sodipodi.sourceforge.net/DTD/sodipodi-0.dtd"
   xmlns:inkscape="http://www.inkscape.org/namespaces/inkscape"
   width="25mm"
   height="14mm"
   viewBox="0 0 726.37795 418.11023"
   id="svg2"
   version="1.1"
   inkscape:version="0.91 r13725"
   sodipodi:docname="run.svg"
   inkscape:export-filename="K:\#1\web\run2.png"
   inkscape:export-xdpi="117"
   inkscape:export-ydpi="117">
  <defs
     id="defs4">
    <linearGradient
       inkscape:collect="always"
       id="linearGradient4436">
      <stop
         style="stop-color:#690000;stop-opacity:0"
         offset="0"
         id="stop4438" />
      <stop
         style="stop-color:#690000;stop-opacity:1"
         offset="1"
         id="stop4440" />
    </linearGradient>
    <linearGradient
       inkscape:collect="always"
       id="linearGradient4370">
      <stop
         style="stop-color:#920000;stop-opacity:1"
         offset="0"
         id="stop4372" />
      <stop
         style="stop-color:#aa0000;stop-opacity:0;"
         offset="1"
         id="stop4374" />
    </linearGradient>
    <linearGradient
       id="linearGradient4340"
       inkscape:collect="always">
      <stop
         id="stop4342"
         offset="0"
         style="stop-color:#000000;stop-opacity:1" />
      <stop
         id="stop4344"
         offset="1"
         style="stop-color:#9b0202;stop-opacity:0" />
    </linearGradient>
    <linearGradient
       inkscape:collect="always"
       id="linearGradient4306">
      <stop
         style="stop-color:#000000;stop-opacity:1"
         offset="0"
         id="stop4308" />
      <stop
         style="stop-color:#800000;stop-opacity:0"
         offset="1"
         id="stop4310" />
    </linearGradient>
    <linearGradient
       id="linearGradient4282"
       inkscape:collect="always">
      <stop
         id="stop4284"
         offset="0"
         style="stop-color:#000000;stop-opacity:1" />
      <stop
         id="stop4286"
         offset="1"
         style="stop-color:#750303;stop-opacity:0" />
    </linearGradient>
    <linearGradient
       inkscape:collect="always"
       id="linearGradient4262">
      <stop
         style="stop-color:#100a0a;stop-opacity:1;"
         offset="0"
         id="stop4264" />
      <stop
         style="stop-color:#6e0000;stop-opacity:0"
         offset="1"
         id="stop4266" />
    </linearGradient>
    <radialGradient
       inkscape:collect="always"
       xlink:href="#linearGradient4282"
       id="radialGradient4270"
       cx="233.68365"
       cy="792.06299"
       fx="233.68365"
       fy="792.06299"
       r="47.591343"
       gradientTransform="matrix(-0.10394395,-0.48291248,0.69949753,-0.17223008,-429.43546,828.32925)"
       gradientUnits="userSpaceOnUse" />
    <radialGradient
       inkscape:collect="always"
       xlink:href="#linearGradient4262"
       id="radialGradient4280"
       cx="234.95505"
       cy="785.99677"
       fx="234.95505"
       fy="785.99677"
       r="47.520275"
       gradientTransform="matrix(0.59060696,-0.13429382,0.0985717,0.48495066,-115.92247,229.44678)"
       gradientUnits="userSpaceOnUse" />
    <radialGradient
       inkscape:collect="always"
       xlink:href="#linearGradient4306"
       id="radialGradient4312"
       cx="238.1991"
       cy="859.02728"
       fx="238.19908"
       fy="859.02728"
       r="51.028214"
       gradientTransform="matrix(-0.04408738,-0.08407608,1.2837409,-0.6165081,-991.69673,1129.7176)"
       gradientUnits="userSpaceOnUse" />
    <radialGradient
       inkscape:collect="always"
       xlink:href="#linearGradient4340"
       id="radialGradient4312-2"
       cx="207.32552"
       cy="858.3667"
       fx="207.3255"
       fy="858.3667"
       r="51.028214"
       gradientTransform="matrix(0.01351156,-0.05891092,0.66491791,0.27708295,-474.20406,352.05671)"
       gradientUnits="userSpaceOnUse" />
    <radialGradient
       inkscape:collect="always"
       xlink:href="#linearGradient4370"
       id="radialGradient4376"
       cx="238.84897"
       cy="772.71295"
       fx="238.84897"
       fy="772.71295"
       r="51.159496"
       gradientTransform="matrix(-0.09376295,-0.15208011,1.0049041,-0.79678691,-649.64423,1252.4047)"
       gradientUnits="userSpaceOnUse" />
    <radialGradient
       inkscape:collect="always"
       xlink:href="#linearGradient4370"
       id="radialGradient4376-4"
       cx="238.84897"
       cy="772.71295"
       fx="238.84897"
       fy="772.71295"
       r="51.159496"
       gradientTransform="matrix(-0.01577644,0.20570768,1.11294,0.44003776,-757.93042,165.8023)"
       gradientUnits="userSpaceOnUse" />
    <radialGradient
       inkscape:collect="always"
       xlink:href="#linearGradient4436"
       id="radialGradient4442"
       cx="257.94934"
       cy="839.87939"
       fx="257.94934"
       fy="839.87939"
       r="28.658325"
       gradientTransform="matrix(5.5635721,-0.96721484,0.74334571,4.6772797,-1929.3003,-3104.5045)"
       gradientUnits="userSpaceOnUse" />
    <radialGradient
       inkscape:collect="always"
       xlink:href="#linearGradient4370"
       id="radialGradient4376-4-0"
       cx="238.84897"
       cy="772.71295"
       fx="238.84897"
       fy="772.71295"
       r="51.159496"
       gradientTransform="matrix(0.09212831,0.18159721,-0.85285468,0.87927921,789.68655,-178.55402)"
       gradientUnits="userSpaceOnUse" />
    <radialGradient
       inkscape:collect="always"
       xlink:href="#linearGradient4370"
       id="radialGradient4376-6"
       cx="238.84897"
       cy="772.71295"
       fx="238.84897"
       fy="772.71295"
       r="51.159496"
       gradientTransform="matrix(0.02841993,-0.17938092,-1.2210072,-0.29942441,1100.526,865.46878)"
       gradientUnits="userSpaceOnUse" />
    <radialGradient
       inkscape:collect="always"
       xlink:href="#linearGradient4340"
       id="radialGradient4312-2-8"
       cx="207.32552"
       cy="858.3667"
       fx="207.3255"
       fy="858.3667"
       r="51.028214"
       gradientTransform="matrix(-0.03054679,-0.02750248,-0.53518339,0.38101247,624.43753,243.55215)"
       gradientUnits="userSpaceOnUse" />
    <radialGradient
       inkscape:collect="always"
       xlink:href="#linearGradient4306"
       id="radialGradient4312-9"
       cx="238.1991"
       cy="859.02728"
       fx="238.19908"
       fy="859.02728"
       r="51.028214"
       gradientTransform="matrix(0.00861693,-0.09585245,-1.4082355,-0.01500702,1367.2762,603.7935)"
       gradientUnits="userSpaceOnUse" />
    <radialGradient
       inkscape:collect="always"
       xlink:href="#linearGradient4282"
       id="radialGradient4270-4"
       cx="233.68365"
       cy="792.06299"
       fx="233.68365"
       fy="792.06299"
       r="47.591343"
       gradientTransform="matrix(-0.06846653,-0.40734985,-0.95347023,0.19974084,929.0146,504.38447)"
       gradientUnits="userSpaceOnUse" />
    <radialGradient
       inkscape:collect="always"
       xlink:href="#linearGradient4262"
       id="radialGradient4280-6"
       cx="234.95505"
       cy="785.99677"
       fx="234.95505"
       fy="785.99677"
       r="47.520275"
       gradientTransform="matrix(-0.80044607,0.17691,0.076085,0.40634716,286.07286,206.44734)"
       gradientUnits="userSpaceOnUse" />
  </defs>
  <sodipodi:namedview
     id="base"
     pagecolor="#ffffff"
     bordercolor="#666666"
     borderopacity="1.0"
     inkscape:pageopacity="0"
     inkscape:pageshadow="2"
     inkscape:zoom="0.55981979"
     inkscape:cx="251.61763"
     inkscape:cy="49.971711"
     inkscape:document-units="px"
     inkscape:current-layer="layer1"
     showgrid="true"
     inkscape:window-width="1366"
     inkscape:window-height="705"
     inkscape:window-x="-8"
     inkscape:window-y="-8"
     inkscape:window-maximized="1"
     fit-margin-top="0"
     fit-margin-left="0"
     fit-margin-right="0"
     fit-margin-bottom="0"
     inkscape:showpageshadow="true">
    <inkscape:grid
       type="xygrid"
       id="grid5603"
       originx="-8.8993615"
       originy="-286.50192" />
  </sodipodi:namedview>
  <metadata
     id="metadata7">
    <rdf:RDF>
      <cc:Work
         rdf:about="">
        <dc:format>image/svg+xml</dc:format>
        <dc:type
           rdf:resource="http://purl.org/dc/dcmitype/StillImage" />
        <dc:title></dc:title>
      </cc:Work>
    </rdf:RDF>
  </metadata>
  <g
     inkscape:label="Layer 1"
     inkscape:groupmode="layer"
     id="layer1"
     transform="translate(-8.8993618,-347.75004)">
    <g
       transform="matrix(1.9897049,0,0,1.5297266,-160.73673,-265.85903)"
       style="font-style:normal;font-variant:normal;font-weight:normal;font-stretch:normal;font-size:369.63748169px;line-height:125%;font-family:Assiduous;-inkscape-font-specification:'Assiduous, Normal';text-align:start;letter-spacing:0px;word-spacing:0px;writing-mode:lr-tb;text-anchor:start;fill:#ffffff;fill-opacity:1;stroke:none;stroke-width:1px;stroke-linecap:butt;stroke-linejoin:miter;stroke-opacity:1"
       id="text4136">
      <path
         inkscape:connector-curvature="0"
         d="m 195.08854,682.62091 -31.41919,0 q -6.46865,-6.77669 -6.46865,-26.79872 l 0,-96.41377 -31.41919,0 0,123.21249 -33.575404,0 0,-273.2237 64.994594,0 q 12.01321,0 21.87021,6.16062 11.70519,7.39275 11.70519,20.63809 l 0,96.41378 q 0,5.85259 -4.9285,9.24094 -3.08031,2.15622 -8.00881,3.69637 -2.46425,0.61606 -0.61606,0.61606 0.61606,0 4.31243,1.54016 9.24094,3.38834 9.24094,11.70519 l 0,96.41377 q -2.46425,17.86581 4.31244,26.79872 z M 157.2007,532.6097 l 0,-96.41378 -31.41919,0 0,96.41378 31.41919,0 z"
         style="fill:#ffffff"
         id="path4186" />
      <path
         inkscape:connector-curvature="0"
         d="m 321.15032,642.26882 q 0,38.19587 -49.285,40.35209 -46.82074,-2.46425 -46.82074,-40.35209 l 0,-232.87161 31.11115,0 0,246.42498 33.57541,0 0,-246.42498 31.41918,0 0,232.87161 z"
         style="fill:#ffffff"
         id="path4188" />
      <path
         inkscape:connector-curvature="0"
         d="m 448.21322,682.62091 -33.57541,0 -31.41918,-152.16743 0,152.16743 -31.11116,0 0,-273.2237 31.11116,0 31.41918,152.47546 0,-152.47546 33.57541,0 0,273.2237 z"
         style="fill:#ffffff"
         id="path4190" />
    </g>
  </g>
  <g
     inkscape:groupmode="layer"
     id="layer2"
     
     inkscape:label="Layer 2"
     transform="translate(-8.8993618,-347.75004)">
    <g
       class="g4576"
       id="g4249">
      <path
         inkscape:connector-curvature="0"
         id="path4140"
         d="M 8.8951986,517.49782 C -12.594584,551.42638 2.9209316,634.46 26.809834,661.97239 c 0,0 23.916799,-6.88709 45.547223,-22.59868 21.630434,-15.7116 37.446133,-39.16495 37.446133,-39.16495 13.82891,7.70917 43.35718,-1.72439 47.39513,-7.01626 2.01898,-2.64594 16.63431,10.58337 43.01471,16.51127 18.78427,4.22097 62.93533,-2.10597 62.93533,-2.10597 6.9321,-21.33593 -6.05329,-122.11457 -29.99746,-135.81768 0,0 -40.88159,16.03151 -56.49956,32.15791 -15.61798,16.12641 -28.92579,45.29218 -28.92579,45.29218 -9.02513,-2.11323 -27.40237,-9.78554 -42.08539,7.29409 -10e-6,0 -12.119446,-13.71687 -45.726772,-26.53547 C 26.306063,517.17023 8.8951986,517.49782 8.8951986,517.49782 Z"
         style="fill:#c70a0a;fill-opacity:1;fill-rule:evenodd;stroke:#000000;stroke-width:1.04435861px;stroke-linecap:butt;stroke-linejoin:miter;stroke-opacity:1" />
      <path
         sodipodi:nodetypes="czsc"
         inkscape:connector-curvature="0"
         id="path4142"
         d="m 105.64881,556.47767 c -4.57401,12.88549 -4.42377,12.54562 -4.69244,16.87893 -0.26867,4.33331 0.93557,6.92727 1.45083,9.45982 1.36414,6.70482 4.50287,12.05946 7.67073,17.39193"
         style="fill:none;fill-rule:evenodd;stroke:#000000;stroke-width:1.34253168px;stroke-linecap:butt;stroke-linejoin:miter;stroke-opacity:1" />
      <path
         sodipodi:nodetypes="cc"
         inkscape:connector-curvature="0"
         id="path4144"
         d="m 147.20224,549.3976 c 11.72909,13.2119 13.13801,27.20493 10.57365,43.6106"
         style="fill:none;fill-rule:evenodd;stroke:#000000;stroke-width:1.25949645;stroke-linecap:butt;stroke-linejoin:miter;stroke-miterlimit:4;stroke-dasharray:none;stroke-opacity:1" />
      <path
         sodipodi:nodetypes="csssc"
         inkscape:connector-curvature="0"
         id="path4146"
         d="m 16.18456,563.2835 c -2.689745,-0.61416 26.371044,2.87987 50.100934,3.1584 6.336473,0.0744 29.710916,7.44433 33.614606,11.573 2.2954,2.42769 -14.352191,8.95263 -25.26226,13.5867 -22.213701,9.43532 -52.551013,27.29255 -52.551013,27.29255"
         style="fill:none;fill-rule:evenodd;stroke:#000000;stroke-width:0.89762974px;stroke-linecap:butt;stroke-linejoin:miter;stroke-opacity:1" />
      <path
         sodipodi:nodetypes="csssc"
         inkscape:connector-curvature="0"
         id="path4146-0"
         d="m 235.18385,564.88455 c 2.70822,0.25278 -30.43946,3.59041 -54.22989,4.02752 -14.09202,0.25892 -24.9009,-0.49984 -23.0299,-3.52025 1.65663,-2.67435 10.14535,-7.66469 20.78581,-13.15524 21.66476,-11.17915 52.24978,-24.43196 52.24978,-24.43196"
         style="fill:none;fill-rule:evenodd;stroke:#000000;stroke-width:0.85920197px;stroke-linecap:butt;stroke-linejoin:miter;stroke-opacity:1" />
      <path
         sodipodi:nodetypes="ccscsccscsscc"
         inkscape:connector-curvature="0"
         id="path4244"
         d="m 51.022319,612.74791 c -1.136277,-4.25288 -5.356232,-16.27799 -5.356232,-16.27799 0,0 5.321448,14.4586 10.434702,7.55919 1.246869,-1.68242 9.658351,-19.76076 9.658351,-19.76076 0,0 -0.872132,-15.17907 -2.97965,-15.61659 -8.086073,-1.67878 -18.371941,9.77935 -18.371941,9.77935 -0.09346,-1.48137 0.271852,-13.82954 0.363021,-16.03567 0,0 34.591611,5.61723 48.349227,11.6254 4.849684,2.11793 9.171923,4.30745 6.958163,4.47462 0,0 0.37855,2.00237 -4.533912,4.48454 -7.014089,3.54408 -12.682846,5.45019 -22.489693,9.13016 -14.148502,5.30915 -22.032443,20.63721 -22.032055,20.63776 z"
         style="fill:url(#radialGradient4270);fill-opacity:1;fill-rule:evenodd;stroke:url(#radialGradient4280);stroke-width:0.18728314;stroke-linecap:butt;stroke-linejoin:miter;stroke-miterlimit:4;stroke-dasharray:none;stroke-opacity:1" />
      <path
         sodipodi:nodetypes="csscssc"
         inkscape:connector-curvature="0"
         id="path4290"
         d="m 101.06886,578.37513 c 0,0 0.93629,3.24588 -10.365947,10.15536 -12.201711,7.45936 -15.011366,13.1147 -23.727468,17.81521 -27.238602,14.68949 -51.291601,21.79974 -51.291601,21.79974 0,0 -8.4566127,-4.00596 -5.8332332,-5.85851 26.3229042,-18.58855 67.1855932,-41.84566 89.6311112,-47.08341 1.625408,-0.37913 1.587138,3.17161 1.587138,3.17161 z"
         style="fill:url(#radialGradient4312);fill-opacity:1;fill-rule:evenodd;stroke:none;stroke-width:1px;stroke-linecap:butt;stroke-linejoin:miter;stroke-opacity:1" />
      <path
         sodipodi:nodetypes="csscssc"
         inkscape:connector-curvature="0"
         id="path4290-4"
         d="m 100.58865,577.31403 c 0,0 -0.21522,1.19289 -13.199843,0.60123 -14.017972,-0.63873 -21.472002,-4.63605 -31.213343,-5.64274 -30.442527,-3.146 -51.8178615,-5.47126 -51.8178615,-5.47126 0,0 -5.7382064,-8.48532 -2.6165003,-8.56606 31.3232108,-0.81012 67.5946748,-2.06006 89.7039188,6.55123 1.601001,0.62373 9.143629,12.5276 9.143629,12.5276 z"
         style="fill:url(#radialGradient4312-2);fill-opacity:1;fill-rule:evenodd;stroke:none;stroke-width:1px;stroke-linecap:butt;stroke-linejoin:miter;stroke-opacity:1" />
      <path
         sodipodi:nodetypes="csscsssc"
         inkscape:connector-curvature="0"
         id="path4290-7"
         d="m 109.15608,599.4352 c 0,0 -6.52055,11.80539 -14.907213,20.5202 -10.436564,10.84494 -13.737993,15.23174 -22.283552,20.50562 -26.705646,16.48132 -47.583316,15.34472 -47.583316,15.34472 0,0 2.328024,-6.18245 5.150369,-7.93921 40.168869,-25.00295 50.707768,-42.59814 62.925054,-50.26404 1.039097,-0.65199 11.365818,-8.35467 13.688378,-3.91785 z"
         style="fill:url(#radialGradient4376);fill-opacity:1;fill-rule:evenodd;stroke:none;stroke-width:1px;stroke-linecap:butt;stroke-linejoin:miter;stroke-opacity:1" />
      <path
         sodipodi:nodetypes="csscsssc"
         inkscape:connector-curvature="0"
         id="path4290-7-4"
         d="m 104.97938,556.76947 c 0,0 -12.374365,-12.85439 -22.465854,-18.77739 -12.558099,-7.37072 -16.902545,-10.74441 -25.78268,-12.84963 -27.751199,-6.57896 -43.992767,3.55861 -43.992767,3.55861 0,0 4.264987,5.74557 7.203664,6.45717 41.824293,10.12757 57.089648,24.81135 69.83427,27.95843 1.083947,0.26766 11.824057,4.8344 13.464447,-0.5934 z"
         style="fill:url(#radialGradient4376-4);fill-opacity:1;fill-rule:evenodd;stroke:none;stroke-width:1px;stroke-linecap:butt;stroke-linejoin:miter;stroke-opacity:1" />
      <path
         sodipodi:nodetypes="ccscscsccccssszszscss"
         inkscape:connector-curvature="0"
         id="path4402"
         d="m 120.65036,547.90126 c -8.87662,2.29085 -14.4924,9.52464 -14.4924,9.52464 0,0 -6.199778,6.97186 -5.59903,17.23889 0.84741,14.48258 11.24719,26.81984 11.24719,26.81984 0,0 13.79049,1.11339 24.3037,-0.0571 11.08373,-1.23401 21.88832,-9.31908 21.88832,-9.31908 0,0 1.36387,-14.57342 -0.0562,-22.01997 -1.30475,-6.84212 -10.23367,-20.3734 -10.23367,-20.3734 0.0106,0.008 -9.83645,-4.81499 -25.23911,-2.20241 -0.62007,0.10517 -1.22708,0.2359 -1.81885,0.38863 z m 8.81279,6.07799 c 7.25672,-1.16252 9.75353,1.86338 15.18692,5.02567 4.24533,2.47082 6.36502,10.53025 7.05284,14.13289 0.74856,3.9209 0.53367,10.04194 -1.6221,15.42716 -2.15578,5.38521 -10.70281,5.69258 -16.34207,6.29834 -5.349,0.57459 -12.93921,4.71436 -18.34628,0.45779 -5.40706,-4.25656 -6.06869,-12.39303 -6.54983,-20.01122 -0.34108,-5.40072 3.65209,-13.72473 3.65209,-13.72473 0,0 4.25167,-5.56869 8.84441,-6.30445 z"
         style="fill:url(#radialGradient4442);fill-opacity:1;fill-rule:evenodd;stroke:none;stroke-width:1px;stroke-linecap:butt;stroke-linejoin:miter;stroke-opacity:1" />
      <path
         sodipodi:nodetypes="csscsssc"
         inkscape:connector-curvature="0"
         id="path4290-7-4-6"
         d="m 147.23354,548.77471 c 0,0 6.4759,-17.06634 13.47911,-26.80901 8.71498,-12.12403 11.41881,-17.0726 18.75462,-22.80114 22.92508,-17.90218 41.62451,-15.57191 41.62451,-15.57191 0,0 -1.73536,7.08631 -4.15734,8.9957 -34.47059,27.17507 -42.90269,47.15386 -53.38346,55.49047 -0.89141,0.70904 -9.00068,9.48753 -12.55241,5.21986 z"
         style="fill:url(#radialGradient4376-4-0);fill-opacity:1;fill-rule:evenodd;stroke:none;stroke-width:1px;stroke-linecap:butt;stroke-linejoin:miter;stroke-opacity:1" />
      <path
         sodipodi:nodetypes="csscsssc"
         inkscape:connector-curvature="0"
         id="path4290-7-3"
         d="m 159.16721,592.3865 c 0,0 10.4285,8.01826 21.39855,12.40796 13.65138,5.46268 18.33086,8.0662 28.14696,9.23732 30.67619,3.6598 49.36298,-6.31717 49.36298,-6.31717 0,0 -4.46632,-4.66432 -7.71393,-5.06479 -46.22148,-5.6997 -62.51572,-17.29924 -76.59704,-19.08891 -1.19764,-0.15222 -13.56182,-2.78479 -14.01288,2.27177 z"
         style="fill:url(#radialGradient4376-6);fill-opacity:1;fill-rule:evenodd;stroke:none;stroke-width:1px;stroke-linecap:butt;stroke-linejoin:miter;stroke-opacity:1" />
      <path
         sodipodi:nodetypes="csscssc"
         inkscape:connector-curvature="0"
         id="path4290-4-5"
         d="m 157.4457,565.12893 c 0,0 0.56413,0.57706 12.48414,-4.2317 12.86863,-5.19144 18.59668,-9.94937 27.36778,-13.86435 27.41045,-12.23465 46.62135,-20.88875 46.62135,-20.88875 0,0 2.76119,-6.616 -0.17253,-5.58167 -29.43693,10.37852 -63.61918,22.22629 -81.5981,34.56662 -1.30186,0.8937 -4.70264,9.99985 -4.70264,9.99985 z"
         style="fill:url(#radialGradient4312-2-8);fill-opacity:1;fill-rule:evenodd;stroke:none;stroke-width:1px;stroke-linecap:butt;stroke-linejoin:miter;stroke-opacity:1" />
      <path
         sodipodi:nodetypes="csscssc"
         inkscape:connector-curvature="0"
         id="path4290-1"
         d="m 158.51052,566.71025 c 0,0 0.36848,3.37276 13.32632,4.86152 13.98907,1.60723 18.69732,5.58275 28.45304,6.15587 30.48752,1.79105 55.19602,-1.99408 55.19602,-1.99408 0,0 6.23024,-7.28762 3.12863,-7.86096 -31.12152,-5.75305 -77.31898,-9.55725 -99.84851,-4.74567 -1.63144,0.34858 -0.2555,3.58332 -0.2555,3.58332 z"
         style="fill:url(#radialGradient4312-9);fill-opacity:1;fill-rule:evenodd;stroke:none;stroke-width:1px;stroke-linecap:butt;stroke-linejoin:miter;stroke-opacity:1" />
      <path
         sodipodi:nodetypes="ccscsccscsscc"
         inkscape:connector-curvature="0"
         id="path4244-8"
         d="m 233.90854,569.32619 c -0.32438,-3.69087 0.0287,-14.59867 0.0287,-14.59867 0,0 -0.73677,13.23112 -10.03755,10.50204 -2.26799,-0.66549 -20.34883,-10.15225 -20.34883,-10.15225 0,0 -5.17303,-11.68206 -2.69554,-12.99422 9.50538,-5.0345 27.21446,-1.34257 27.21446,-1.34257 -0.49432,-1.14401 -6.05823,-10.14392 -7.08494,-11.73971 0,0 -41.30977,20.37524 -56.17958,31.28182 -5.24173,3.84469 -9.78861,7.49545 -6.92725,6.58265 0,0 0.35001,1.66449 7.57205,1.20692 10.3117,-0.65332 18.24956,-1.89299 32.14,-3.75356 20.03995,-2.68428 36.31878,5.00694 36.31851,5.00754 z"
         style="fill:url(#radialGradient4270-4);fill-opacity:1;fill-rule:evenodd;stroke:url(#radialGradient4280-6);stroke-width:0.19911748;stroke-linecap:butt;stroke-linejoin:miter;stroke-miterlimit:4;stroke-dasharray:none;stroke-opacity:1" />
    </g>
  </g>
</svg>
